<?xml version="1.0" encoding="utf-8"?>
<!-- Generator: Adobe Illustrator 19.0.0, SVG Export Plug-In . SVG Version: 6.00 Build 0)  -->
<svg version="1.1" id="Layer_1" xmlns="http://www.w3.org/2000/svg" xmlns:xlink="http://www.w3.org/1999/xlink" x="0px" y="0px"
	 viewBox="-112.5 361 67.1 67.2" style="enable-background:new -112.5 361 67.1 67.2;" xml:space="preserve">
<style type="text/css">
	.st0{fill:none;stroke:#0E1032;stroke-width:0.9554;stroke-miterlimit:10;}
</style>
<g>
	<polyline class="st0" points="-85.6,412.5 -96.9,412.5 -96.9,401.3 	"/>
	<polyline class="st0" points="-61.8,401 -61.8,411.7 -72.6,411.7 	"/>
	<polyline class="st0" points="-72.3,376.7 -61,376.7 -61,387.9 	"/>
	<polyline class="st0" points="-96.9,387.9 -96.9,376.7 -85.6,376.7 	"/>
	<polyline class="st0" points="-88.4,420 -104.4,420 -104.4,404.1 	"/>
	<polyline class="st0" points="-53.5,404.1 -53.5,420 -69.5,420 	"/>
	<polyline class="st0" points="-69.5,369.2 -53.5,369.2 -53.5,385.1 	"/>
	<polyline class="st0" points="-104.4,385.1 -104.4,369.2 -88.4,369.2 	"/>
	<polyline class="st0" points="-91.3,427.7 -112,427.7 -112,406.9 	"/>
	<polyline class="st0" points="-45.9,406.9 -45.9,427.7 -66.6,427.7 	"/>
	<polyline class="st0" points="-66.6,361.5 -45.9,361.5 -45.9,382.3 	"/>
	<polyline class="st0" points="-112,382.3 -112,361.5 -91.3,361.5 	"/>
</g>
</svg>
