<?xml version="1.0" encoding="utf-8"?>
<!-- Generator: Adobe Illustrator 19.0.0, SVG Export Plug-In . SVG Version: 6.00 Build 0)  -->
<svg version="1.1" id="Layer_1" xmlns="http://www.w3.org/2000/svg" xmlns:xlink="http://www.w3.org/1999/xlink" x="0px" y="0px"
	 viewBox="-116.7 369.6 99.4 55.5" style="enable-background:new -116.7 369.6 99.4 55.5;" xml:space="preserve">
<style type="text/css">
	.st0{fill:none;stroke:#0E1032;stroke-width:0.9554;stroke-miterlimit:10;}
</style>
<g>
	<g>
		<polyline class="st0" points="-63.7,405.8 -72.2,397.3 -63.7,388.8 		"/>
		<polyline class="st0" points="-36.6,415.9 -45.1,424.4 -53.6,415.9 		"/>
		<polyline class="st0" points="-26.5,388.8 -18,397.3 -26.5,405.8 		"/>
		<polyline class="st0" points="-53.6,378.8 -45.1,370.3 -36.6,378.8 		"/>
	</g>
	<g>
		<polyline class="st0" points="-85.6,405.8 -94.1,397.3 -85.6,388.8 		"/>
		<polyline class="st0" points="-58.5,415.9 -67,424.4 -75.5,415.9 		"/>
		<polyline class="st0" points="-48.4,388.8 -39.9,397.3 -48.4,405.8 		"/>
		<polyline class="st0" points="-75.5,378.8 -67,370.3 -58.5,378.8 		"/>
	</g>
	<g>
		<polyline class="st0" points="-107.5,405.8 -116,397.3 -107.5,388.8 		"/>
		<polyline class="st0" points="-80.4,415.9 -88.9,424.4 -97.4,415.9 		"/>
		<polyline class="st0" points="-70.3,388.8 -61.8,397.3 -70.3,405.8 		"/>
		<polyline class="st0" points="-97.4,378.8 -88.9,370.3 -80.4,378.8 		"/>
	</g>
</g>
</svg>
