<svg id="Layer_1" data-name="Layer 1" xmlns="http://www.w3.org/2000/svg" width="2.0172in" height="2.0172in" viewBox="0 0 145.2372 145.2382"><defs><style>.cls-1{fill:#fff;}</style></defs><title>synth-logo</title><polygon class="cls-1" points="44.585 0.989 0.989 0.989 0.989 44.586 1.243 44.586 1.243 1.243 44.585 1.243 44.585 0.989"/><path class="cls-1" d="M73.7894,75.1362H117.131V72.9043H71.5574v45.574h2.2319ZM72.8008,117.49H72.546V73.8928h43.5964v.2549H72.8008Z" transform="translate(-71.5574 -72.9043)"/><polygon class="cls-1" points="100.652 1.243 143.994 1.243 143.994 44.586 144.249 44.586 144.249 0.989 100.652 0.989 100.652 1.243"/><path class="cls-1" d="M171.2211,72.9043v2.2319h43.3416v43.3421h2.2319V72.9043Zm44.585,44.5855h-.2549V74.1477H172.21v-.2549h43.5965Z" transform="translate(-71.5574 -72.9043)"/><polygon class="cls-1" points="100.652 144.25 144.249 144.25 144.249 100.652 143.994 100.652 143.994 143.994 100.652 143.994 100.652 144.25"/><path class="cls-1" d="M214.5627,215.91H171.2211v2.2324h45.5735V172.568h-2.2319Zm.9885-42.3535h.2549v43.5974H172.21v-.2553h43.3416Z" transform="translate(-71.5574 -72.9043)"/><polygon class="cls-1" points="1.243 100.652 0.989 100.652 0.989 144.25 44.585 144.25 44.585 143.994 1.243 143.994 1.243 100.652"/><path class="cls-1" d="M73.7894,172.568H71.5574v45.5745H117.131V215.91H73.7894Zm42.353,44.5859H72.546V173.5565h.2549v43.3421h43.3416Z" transform="translate(-71.5574 -72.9043)"/><path class="cls-1" d="M118.2214,106.5552c0-1.6952,1.6662-2.7122,4.209-2.7122a10.4145,10.4145,0,0,1,5.4525,1.6387l.9605-2.006a11.6956,11.6956,0,0,0-6.272-1.8362c-4.0961,0-6.8368,1.9776-6.8368,5.0851,0,7.0917,11.1318,4.2945,11.1038,9.5775,0,1.9211-1.78,3.08-4.6338,3.08a9.9365,9.9365,0,0,1-6.5829-2.7687l-1.0165,1.95a11.2871,11.2871,0,0,0,7.5715,3.0231c4.238,0,7.1476-2.119,7.1476-5.3964C129.3522,109.0131,118.2214,111.6973,118.2214,106.5552Z" transform="translate(-71.5574 -72.9043)"/><polygon class="cls-1" points="70.004 48.596 72.236 48.596 72.236 41.731 79.751 28.82 77.434 28.82 71.105 39.188 64.692 28.82 62.347 28.82 70.004 41.788 70.004 48.596"/><polygon class="cls-1" points="87.977 32.549 99.844 48.596 102.161 48.596 102.161 28.82 99.929 28.82 99.929 44.895 88.062 28.82 85.717 28.82 85.717 48.596 87.977 48.596 87.977 32.549"/><polygon class="cls-1" points="51.156 82.507 51.156 64.821 57.626 64.821 57.626 62.73 42.454 62.73 42.454 64.821 48.895 64.821 48.895 82.507 51.156 82.507"/><polygon class="cls-1" points="65.992 73.749 77.915 73.749 77.915 82.507 80.175 82.507 80.175 62.73 77.915 62.73 77.915 71.687 65.992 71.687 65.992 62.73 63.732 62.73 63.732 82.507 65.992 82.507 65.992 73.749"/><polygon class="cls-1" points="102.783 80.417 91.256 80.417 91.256 73.523 101.229 73.523 101.229 71.46 91.256 71.46 91.256 64.821 102.415 64.821 102.415 62.73 88.996 62.73 88.996 82.507 102.783 82.507 102.783 80.417"/><path class="cls-1" d="M118.2214,174.3768c0-1.6952,1.6662-2.7122,4.209-2.7122a10.4145,10.4145,0,0,1,5.4525,1.6387l.9605-2.006a11.6956,11.6956,0,0,0-6.272-1.8362c-4.0961,0-6.8368,1.9776-6.8368,5.0851,0,7.0917,11.1318,4.2945,11.1038,9.5775,0,1.9211-1.78,3.08-4.6338,3.08a9.9367,9.9367,0,0,1-6.5829-2.7687l-1.0165,1.95a11.2871,11.2871,0,0,0,7.5715,3.0231c4.238,0,7.1476-2.119,7.1476-5.3965C129.3522,176.8347,118.2214,179.5189,118.2214,174.3768Z" transform="translate(-71.5574 -72.9043)"/><rect class="cls-1" x="65.2291" y="96.6413" width="2.2599" height="19.7767"/><path class="cls-1" d="M149.39,174.3768c0-1.6952,1.6672-2.7122,4.21-2.7122a10.4142,10.4142,0,0,1,5.4525,1.6387l.9606-2.006a11.6957,11.6957,0,0,0-6.2721-1.8362c-4.0961,0-6.8368,1.9776-6.8368,5.0851,0,7.0917,11.1318,4.2945,11.1038,9.5775,0,1.9211-1.78,3.08-4.6338,3.08a9.9366,9.9366,0,0,1-6.5829-2.7687l-1.0175,1.95a11.2914,11.2914,0,0,0,7.5724,3.0231c4.238,0,7.1476-2.119,7.1476-5.3965C160.5213,176.8347,149.39,179.5189,149.39,174.3768Z" transform="translate(-71.5574 -72.9043)"/></svg>